G04 ================== begin FILE IDENTIFICATION RECORD ==================*
G04 Layout Name:  PULSE MODULATION.brd*
G04 Film Name:    BOTTOM*
G04 File Format:  Gerber RS274X*
G04 File Origin:  Cadence Allegro 17.2-P019*
G04 Origin Date:  Tue Jul 30 17:40:17 2019*
G04 *
G04 Layer:  ETCH/BOTTOM*
G04 Layer:  PIN/BOTTOM*
G04 Layer:  VIA CLASS/BOTTOM*
G04 *
G04 Offset:    (0.000 0.000)*
G04 Mirror:    No*
G04 Mode:      Positive*
G04 Rotation:  0*
G04 FullContactRelief:  No*
G04 UndefLineWidth:     0.000*
G04 ================== end FILE IDENTIFICATION RECORD ====================*
%FSLAX25Y25*MOMM*%
%IR0*IPPOS*OFA0.00000B0.00000*MIA0B0*SFA1.00000B1.00000*%
%ADD11C,1.524*%
%ADD13C,1.651*%
%ADD12R,1.524X1.524*%
%ADD15O,1.524X1.016*%
%ADD14R,1.524X1.016*%
%ADD10C,.635*%
%ADD16C,1.*%
%ADD17C,.5*%
%ADD19C,2.528*%
%ADD18C,2.656*%
G75*
%LPD*%
G75*
G36*
G01X754200Y500000D02*
Y754200D01*
X500000D01*
Y1611600D01*
G03X546500Y1855500I0J126383D01*
G02Y1874500I3796J9500D01*
G03Y2109500I-46500J117500D01*
G02Y2128500I3796J9500D01*
G03Y2363500I-46500J117500D01*
G02Y2382500I3796J9500D01*
G03X500000Y2626400I-46500J117517D01*
G01Y4373600D01*
G03X600100Y4422800I0J126429D01*
G01X601600Y4424800D01*
X612400D01*
X623300Y4413900D01*
Y4350400D01*
X730900Y4242800D01*
X1873900D01*
X2064400Y4052300D01*
X2634600D01*
X2742200Y4159900D01*
Y4292600D01*
G03X2784500Y4347700I-75244J101551D01*
G02X2803500I9500J-3796D01*
G03X2998100Y4294000I117538J46491D01*
G01X4054700D01*
X4690000Y4929300D01*
X4691600Y4929500D01*
G03X4750700Y4954400I-17924J125129D01*
G01X4809900D01*
X5038500Y4725800D01*
X6696300D01*
X6976000Y5005500D01*
X6977600Y5005700D01*
G03X7006100Y5248300I-18030J125092D01*
G02Y5267300I3796J9500D01*
G03Y5502300I-46500J117500D01*
G02Y5521300I3796J9500D01*
G03X7024200Y5747400I-46528J117499D01*
G02X7029400Y5766400I5194J8790D01*
G01X7035800D01*
G03X7086000Y5816600I0J50200D01*
G01Y5969000D01*
G03X7035800Y6019200I-50200J0D01*
G01X6883400D01*
G03X6833200Y5969000I0J-50200D01*
G01Y5816600D01*
G03X6883400Y5766400I50200J0D01*
G01X6889800D01*
G02X6895000Y5747400I6J-10210D01*
G03X6834200Y5622600I64567J-108666D01*
G01X6834600Y5620100D01*
X6598300Y5383800D01*
X5537200D01*
G03X5482100Y5426100I-101551J-75244D01*
G02Y5445100I3796J9500D01*
G03Y5680100I-46500J117500D01*
G02Y5699100I3796J9500D01*
G03X5389100I-46500J117500D01*
G02Y5680100I-3796J-9500D01*
G03X5359900Y5663800I46460J-117533D01*
G01X5358500Y5662800D01*
X5325500D01*
X5243700Y5744600D01*
Y5991000D01*
X5312000Y6059300D01*
X7198900D01*
X7514200Y5744000D01*
Y5704500D01*
X7596300Y5622400D01*
X7596500Y5620800D01*
G03X7675100Y5521300I125093J18022D01*
G02Y5502300I-3796J-9500D01*
G03Y5267300I46500J-117500D01*
G02Y5248300I-3796J-9500D01*
G03X7768100I46500J-117500D01*
G02Y5267300I3796J9500D01*
G03Y5502300I-46500J117500D01*
G02Y5521300I3796J9500D01*
G03Y5756300I-46500J117500D01*
G02Y5775300I3796J9500D01*
G03X7609400Y5951000I-46498J117524D01*
G02X7593100Y5948500I-9060J4684D01*
G01X7281900Y6259700D01*
X5229000D01*
X5102000Y6132700D01*
X4086000D01*
X3057100Y5103800D01*
G02X3040300Y5114400I-7175J7242D01*
G03X2803500Y5202700I-119279J41792D01*
G02X2784500I-9500J3796D01*
G03X2549500I-117500J-46500D01*
G02X2530500I-9500J3796D01*
G03X2315700Y5236900I-117527J-46503D01*
G02X2297700Y5243400I-7807J6554D01*
G01Y5301600D01*
X2190100Y5409200D01*
X921400D01*
X750300Y5238100D01*
Y4920600D01*
X658900Y4829200D01*
X601600D01*
G03X546500Y4871500I-101551J-75244D01*
G02Y4890500I3796J9500D01*
G03X500000Y5134400I-46500J117517D01*
G01Y6245800D01*
X754200D01*
Y6500000D01*
X9310800D01*
Y6245800D01*
X9500000D01*
Y3126400D01*
G03X9453500Y2882500I0J-126383D01*
G02Y2863500I-3796J-9500D01*
G03X9500000Y2619600I46500J-117517D01*
G01Y754200D01*
X9245800D01*
Y500000D01*
X754200D01*
G37*
G36*
G01X2028400Y4301000D02*
X1936100Y4393200D01*
X793100D01*
X773700Y4412600D01*
Y4476100D01*
X674600Y4575200D01*
X601600D01*
G03X546500Y4617500I-101551J-75244D01*
G02Y4636500I3796J9500D01*
G03X601600Y4678800I-46451J117544D01*
G01X721100D01*
X900700Y4858400D01*
Y5175900D01*
X983600Y5258800D01*
X2058400D01*
G02X2065900Y5241700I-2J-10196D01*
G03X2276500Y5109700I93070J-85513D01*
G02X2295500I9500J-3796D01*
G03X2530500I117500J46500D01*
G02X2549500I9500J-3796D01*
G03X2635200Y5033900I117508J46509D01*
G02X2639900Y5016800I-2529J-9891D01*
G01X2143700Y4520600D01*
X2082800D01*
G03X2032600Y4470400I0J-50200D01*
G01Y4318000D01*
G03X2033400Y4309100I50198J26D01*
G01X2033900Y4306500D01*
X2028400Y4301000D01*
G37*
G36*
G01X5498900Y4945200D02*
G03X5482100Y5172100I-63314J109384D01*
G02Y5191100I3796J9500D01*
G03X5537200Y5233400I-46451J117544D01*
G01X6660500D01*
X6815800Y5388700D01*
G02X6833200Y5381700I7206J-7212D01*
G03X6913100Y5267300I126362J3153D01*
G02Y5248300I-3796J-9500D01*
G03X6834500Y5148800I46493J-117522D01*
G01X6834300Y5147200D01*
X6613300Y4926200D01*
X5504100D01*
G02X5498900Y4945200I-46J10199D01*
G37*
%LPC*%
G75*
G36*
G01X8408000Y5892800D02*
Y6045200D01*
G02X8458200Y6095400I50200J0D01*
G01X8610600D01*
G02X8660800Y6045200I0J-50200D01*
G01Y5892800D01*
G02X8610600Y5842600I-50200J0D01*
G01X8458200D01*
G02X8408000Y5892800I0J50200D01*
G37*
G36*
G01X8717500Y5028200D02*
X8907500D01*
G02Y4877800I109500J-75200D01*
G01X8655300D01*
X8641100Y4892000D01*
G03X8626400Y4891800I-7253J-7208D01*
G02X8636000Y5053600I-92008J86644D01*
G01X8692100D01*
X8717500Y5028200D01*
G37*
G36*
G01X6653600Y2213400D02*
X6738000Y2297700D01*
X6978000D01*
X7037000Y2238800D01*
X7039500Y2239200D01*
G02X6930200Y2129900I21700J-131000D01*
G01X6930600Y2132400D01*
X6915800Y2147300D01*
X6800200D01*
X6760000Y2107000D01*
X6760400Y2104500D01*
G02X6651100Y2213800I-131000J-21700D01*
G01X6653600Y2213400D01*
G37*
G36*
G01X8541400Y1027700D02*
X8611600Y1097900D01*
Y1244600D01*
G02X8703000Y1471600I75180J101630D01*
G01X8705500Y1471200D01*
X8815800Y1581500D01*
X8815400Y1584000D01*
G02X8924600Y1474800I125400J16200D01*
G01X8922100Y1475200D01*
X8811800Y1364900D01*
X8812200Y1362400D01*
G02X8762000Y1244600I-125377J-16167D01*
G01Y1035700D01*
X8603600Y877300D01*
X7169800D01*
X7085400Y961600D01*
X7082900Y961200D01*
G02X7192200Y1070500I-21700J131000D01*
G01X7191800Y1068000D01*
X7232000Y1027700D01*
X8541400D01*
G37*
G36*
G01X1951500Y6061100D02*
G02X1858500I-46500J-117500D01*
G03Y6080100I-3796J9500D01*
G02X1951500I46500J117500D01*
G03Y6061100I3796J-9500D01*
G37*
G36*
G01X7031500Y3597300D02*
G02X6938500I-46500J-117500D01*
G03Y3616300I-3796J9500D01*
G02Y3851300I46500J117500D01*
G03Y3870300I-3796J9500D01*
G02X6920400Y4096400I46528J117499D01*
G03X6915200Y4115400I-5194J8790D01*
G01X6908800D01*
G02X6858600Y4165600I0J50200D01*
G01Y4318000D01*
G02X6908800Y4368200I50200J0D01*
G01X7061200D01*
G02X7111400Y4318000I0J-50200D01*
G01Y4165600D01*
G02X7061200Y4115400I-50200J0D01*
G01X7054800D01*
G03X7049600Y4096400I-6J-10210D01*
G02X7031500Y3870300I-64628J-108601D01*
G03Y3851300I3796J-9500D01*
G02Y3616300I-46500J-117500D01*
G03Y3597300I3796J-9500D01*
G37*
G36*
G01X7984800Y3163300D02*
X6255400D01*
X5709300Y3709400D01*
X5697500D01*
X5696000Y3707300D01*
G02X5697500Y3859800I-107990J77320D01*
G01X5771500D01*
X6317600Y3313700D01*
X7922600D01*
X7989300Y3380400D01*
Y3652700D01*
X7983400Y3658600D01*
X7848600D01*
G02X7793500Y3616300I-101551J75244D01*
G03Y3597300I3796J-9500D01*
G02X7700500I-46500J-117500D01*
G03Y3616300I-3796J9500D01*
G02Y3851300I46500J117500D01*
G03Y3870300I-3796J9500D01*
G02Y4105300I46500J117500D01*
G03Y4124300I-3796J9500D01*
G02X7793500I46500J117500D01*
G03Y4105300I3796J-9500D01*
G02Y3870300I-46500J-117500D01*
G03Y3851300I3796J-9500D01*
G02X7848600Y3809000I-46451J-117544D01*
G01X8045600D01*
X8139700Y3714900D01*
Y3318200D01*
X7984800Y3163300D01*
G37*
G36*
G01X2738900Y1997100D02*
G02X2645900I-46500J-117500D01*
G03Y2016100I-3796J9500D01*
G02Y2251100I46500J117500D01*
G03Y2270100I-3796J9500D01*
G02Y2505100I46500J117500D01*
G03Y2524100I-3796J9500D01*
G02X2617200Y2743200I46508J117522D01*
G01Y2914000D01*
X2826400Y3123200D01*
X4412600D01*
X4520200Y3015600D01*
Y2776500D01*
G02X4554500Y2742200I-75200J-109500D01*
G01X4984100D01*
X5035900Y2690400D01*
X5038400Y2690800D01*
G02X4929200Y2581600I16200J-125400D01*
G01X4929600Y2584100D01*
X4921900Y2591800D01*
X4554500D01*
G02X4369800Y2776500I-109500J75200D01*
G01Y2953400D01*
X4350400Y2972800D01*
X2888600D01*
X2767600Y2851800D01*
Y2743200D01*
G02X2738900Y2524100I-75208J-101578D01*
G03Y2505100I3796J-9500D01*
G02Y2270100I-46500J-117500D01*
G03Y2251100I3796J-9500D01*
G02X2794000Y2208800I-46451J-117544D01*
G01X2864500D01*
X2953400Y2297700D01*
X3319500D01*
G02Y2147300I109500J-75200D01*
G01X3015600D01*
X2926700Y2058400D01*
X2794000D01*
G02X2738900Y2016100I-101551J75244D01*
G03Y1997100I3796J-9500D01*
G37*
G36*
G01X1976900D02*
G02X1883900I-46500J-117500D01*
G03Y2016100I-3796J9500D01*
G02Y2251100I46500J117500D01*
G03Y2270100I-3796J9500D01*
G02X1865800Y2496200I46528J117499D01*
G03X1860600Y2515200I-5194J8790D01*
G01X1854200D01*
G02X1804000Y2565400I0J50200D01*
G01Y2717800D01*
G02X1854200Y2768000I50200J0D01*
G01X2006600D01*
G02X2056800Y2717800I0J-50200D01*
G01Y2565400D01*
G02X2006600Y2515200I-50200J0D01*
G01X2000200D01*
G03X1995000Y2496200I-6J-10210D01*
G02X1976900Y2270100I-64628J-108601D01*
G03Y2251100I3796J-9500D01*
G02Y2016100I-46500J-117500D01*
G03Y1997100I3796J-9500D01*
G37*
G36*
G01X6519900Y1142000D02*
G02Y991600I109500J-75200D01*
G01X5504900D01*
G02X5461000Y965800I-43900J24449D01*
G01X5308600D01*
G02X5264700Y991600I0J50249D01*
G01X3987800D01*
G02X3839700Y1184300I-101603J75174D01*
G03Y1203300I-3796J9500D01*
G02X3932700I46500J117500D01*
G03Y1184300I3796J-9500D01*
G02X3987800Y1142000I-46451J-117544D01*
G01X5264700D01*
G02X5269100Y1148600I43849J-24466D01*
G02X5280900Y1257300I90309J45187D01*
G02X5359400Y1421800I78500J63520D01*
G01X5410200D01*
G02X5488700Y1257300I0J-100980D01*
G02X5500500Y1148600I-78509J-63513D01*
G02X5504900Y1142000I-39449J-31066D01*
G01X6519900D01*
G37*
G36*
G01X2738900Y1108100D02*
G02X2645900I-46500J-117500D01*
G03Y1127100I-3796J9500D01*
G02X2738900I46500J117500D01*
G03Y1108100I3796J-9500D01*
G37*
G54D19*
X5562600Y2565400D03*
X5308600Y2819400D03*
X8686800Y1854200D03*
G54D18*
X3429000Y2667000D03*
X4445000Y2222500D03*
X4597400Y3403600D03*
X4572000Y3784600D03*
X4597400Y4165600D03*
X4572000Y4470400D03*
X5613400Y3403600D03*
Y4165600D03*
X5588000Y4470400D03*
X9017000Y5969000D03*
%LPD*%
G75*
G54D10*
X500000Y500000D03*
Y6500000D03*
X9500000Y500000D03*
X9565000Y6500000D03*
G54D11*
X500000Y1738000D03*
Y1992000D03*
Y2246000D03*
Y2500000D03*
Y5008000D03*
Y4754000D03*
Y4500000D03*
X1930400Y1879600D03*
Y2133600D03*
Y2387600D03*
X1905000Y6197600D03*
Y5943600D03*
X2692400Y990600D03*
Y1244600D03*
Y1879600D03*
Y2133600D03*
Y2387600D03*
Y2641600D03*
X2667000Y4394200D03*
X2413000D03*
X2667000Y5156200D03*
X2413000D03*
X2159000D03*
X2921000Y4394200D03*
Y5156200D03*
X3886200Y1066800D03*
Y1320800D03*
X4673600Y5562600D03*
Y5308600D03*
Y5054600D03*
X5054600Y2565400D03*
X5562600D03*
X5308600Y2819400D03*
X5435600Y5562600D03*
Y5308600D03*
Y5054600D03*
Y5816600D03*
X6985000Y3479800D03*
Y3987800D03*
Y3733800D03*
X6959600Y5638800D03*
Y5384800D03*
Y5130800D03*
X7747000Y3479800D03*
Y4241800D03*
Y3987800D03*
Y3733800D03*
X7721600Y5638800D03*
Y5384800D03*
Y5130800D03*
Y5892800D03*
X8686800Y1854200D03*
Y1346200D03*
X8534400Y4978400D03*
X8940800Y1600200D03*
X9500000Y2746000D03*
Y3000000D03*
G54D12*
X1930400Y2641600D03*
X2159000Y4394200D03*
X4673600Y5816600D03*
X6985000Y4241800D03*
X6959600Y5892800D03*
X8534400Y5969000D03*
G54D13*
X3429000Y2222500D03*
Y2667000D03*
X4445000Y2222500D03*
Y2667000D03*
X4597400Y3403600D03*
X4572000Y3784600D03*
X4597400Y4165600D03*
X4572000Y4470400D03*
X5613400Y3403600D03*
X5588000Y3784600D03*
X5613400Y4165600D03*
X5588000Y4470400D03*
X7061200Y1092200D03*
X6629400Y1066800D03*
X7061200Y2108200D03*
X6629400Y2082800D03*
X9017000Y4953000D03*
Y5969000D03*
G54D14*
X5384800Y1066800D03*
G54D15*
Y1193800D03*
Y1320800D03*
G54D16*
G01X635000Y2095500D02*
X531500Y1992000D01*
X500000D01*
G01X1714500Y2667000D02*
X1739900Y2641600D01*
G01D02*
X1930400D01*
G01X5143500Y6032500D02*
X4127500D01*
X3054300Y4959300D01*
X2724100D01*
X2159000Y4394200D01*
G01X2921000D02*
X4013200D01*
X4673600Y5054600D01*
G01X6959600Y5130800D02*
X6654800Y4826000D01*
X5080000D01*
X4851400Y5054600D01*
X4673600D01*
G01X5143500Y6032500D02*
Y5703100D01*
X5284000Y5562600D01*
X5435600D01*
G01X7721600Y5638800D02*
X7614400Y5746000D01*
Y5785500D01*
X7240400Y6159500D01*
X5270500D01*
X5143500Y6032500D01*
G54D17*
G01X2667000Y4394200D02*
Y4191000D01*
X2603500Y4127500D01*
X2095500D01*
X1905000Y4318000D01*
X762000D01*
X698500Y4381500D01*
Y4445000D01*
X643500Y4500000D01*
X500000D01*
G01X2159000Y5156200D02*
X2222500Y5219700D01*
Y5270500D01*
X2159000Y5334000D01*
X952500D01*
X825500Y5207000D01*
Y4889500D01*
X690000Y4754000D01*
X500000D01*
G01Y5008000D02*
X631500D01*
G01X500000D02*
Y5139500D01*
G01X1773500Y5943600D02*
X1905000D01*
G01X2560900Y1244600D02*
X2692400D01*
G01X1930400Y2641600D02*
X2061900D01*
G01X1930400D02*
Y2773100D01*
G01X2413000Y5156200D02*
Y5287700D01*
G01Y5024700D02*
Y5156200D01*
G01X1905000Y5943600D02*
X2036500D01*
G01X1905000Y5812100D02*
Y5943600D01*
G01X2692400Y1244600D02*
X2823900D01*
G01X2692400D02*
Y1376100D01*
G01X4445000Y2667000D02*
Y2984500D01*
X4381500Y3048000D01*
X2857500D01*
X2692400Y2882900D01*
Y2641600D01*
G01Y2133600D02*
X2895600D01*
X2984500Y2222500D01*
X3429000D01*
G01X3886200Y1066800D02*
X5384800D01*
G01X3886200Y1320800D02*
X4017700D01*
G01X3754700D02*
X3886200D01*
G01D02*
Y1452300D01*
G01X4445000Y2222500D02*
X4582900D01*
G01X4307100D02*
X4445000D01*
G01D02*
Y2360400D01*
G01Y2084600D02*
Y2222500D01*
G01Y2667000D02*
X4953000D01*
X5054600Y2565400D01*
G01X6629400Y1066800D02*
X5384800D01*
G01X5613400Y3403600D02*
X5751300D01*
G01X5475500D02*
X5613400D01*
G01D02*
Y3541500D01*
G01Y3265700D02*
Y3403600D01*
G01X7747000Y3733800D02*
X8014500D01*
X8064500Y3683800D01*
Y3349300D01*
X7953700Y3238500D01*
X6286500D01*
X5740400Y3784600D01*
X5588000D01*
G01X5435600Y5308600D02*
X6629400D01*
X6959600Y5638800D01*
G01X8686800Y1346200D02*
Y1066800D01*
X8572500Y952500D01*
X7200900D01*
X7061200Y1092200D01*
G01X6629400Y2082800D02*
X6769100Y2222500D01*
X6946900D01*
X7061200Y2108200D01*
G01X6985000Y3733800D02*
X7116500D01*
G01X6853500D02*
X6985000D01*
G01X6959600Y5384800D02*
X7091100D01*
G01X6828100D02*
X6959600D01*
G01X8940800Y1600200D02*
X8686800Y1346200D01*
G01X8534400Y4978400D02*
X8661000D01*
X8686400Y4953000D01*
X9017000D01*
G01X9500000Y2614500D02*
Y2746000D01*
G01X9368500D02*
X9500000D01*
G01X9017000Y5969000D02*
X9154900D01*
G01X8879100D02*
X9017000D01*
G01D02*
Y6106900D01*
G01Y5831100D02*
Y5969000D01*
M02*
