G04 ================== begin FILE IDENTIFICATION RECORD ==================*
G04 Layout Name:  PULSE MODULATION.brd*
G04 Film Name:    BOTTOM*
G04 File Format:  Gerber RS274X*
G04 File Origin:  Cadence Allegro 17.2-P019*
G04 Origin Date:  Tue Jul 30 17:07:59 2019*
G04 *
G04 Layer:  ETCH/BOTTOM*
G04 Layer:  PIN/BOTTOM*
G04 Layer:  VIA CLASS/BOTTOM*
G04 *
G04 Offset:    (0.000 0.000)*
G04 Mirror:    No*
G04 Mode:      Positive*
G04 Rotation:  0*
G04 FullContactRelief:  No*
G04 UndefLineWidth:     0.000*
G04 ================== end FILE IDENTIFICATION RECORD ====================*
%FSLAX25Y25*MOMM*%
%IR0*IPPOS*OFA0.00000B0.00000*MIA0B0*SFA1.00000B1.00000*%
%ADD11C,1.524*%
%ADD13C,1.651*%
%ADD12R,1.524X1.524*%
%ADD15O,1.524X1.016*%
%ADD14R,1.524X1.016*%
%ADD10C,.635*%
%ADD16C,1.*%
%ADD17C,.5*%
%ADD19C,2.528*%
%ADD18C,2.656*%
G75*
%LPD*%
G75*
G36*
G01X754200Y500000D02*
Y754200D01*
X500000D01*
Y1611600D01*
G03X546500Y1855500I0J126383D01*
G02Y1874500I3796J9500D01*
G03Y2109500I-46500J117500D01*
G02Y2128500I3796J9500D01*
G03Y2363500I-46500J117500D01*
G02Y2382500I3796J9500D01*
G03X500000Y2626400I-46500J117517D01*
G01Y4373600D01*
G03X516200Y4374600I327J126420D01*
G01X518700Y4375000D01*
X777900Y4115800D01*
X2494900D01*
X2648300Y4269200D01*
X2650800Y4268800D01*
G03X2784500Y4347700I16148J125367D01*
G02X2803500I9500J-3796D01*
G03X2998100Y4294000I117538J46491D01*
G01X4054700D01*
X4690000Y4929300D01*
X4691600Y4929500D01*
G03X4750700Y4954400I-17924J125129D01*
G01X4809900D01*
X5038500Y4725800D01*
X6696300D01*
X6976000Y5005500D01*
X6977600Y5005700D01*
G03X7006100Y5248300I-18030J125092D01*
G02Y5267300I3796J9500D01*
G03Y5502300I-46500J117500D01*
G02Y5521300I3796J9500D01*
G03X7024200Y5747400I-46528J117499D01*
G02X7029400Y5766400I5194J8790D01*
G01X7035800D01*
G03X7086000Y5816600I0J50200D01*
G01Y5969000D01*
G03X7035800Y6019200I-50200J0D01*
G01X6883400D01*
G03X6833200Y5969000I0J-50200D01*
G01Y5816600D01*
G03X6883400Y5766400I50200J0D01*
G01X6889800D01*
G02X6895000Y5747400I6J-10210D01*
G03X6834200Y5622600I64567J-108666D01*
G01X6834600Y5620100D01*
X6598300Y5383800D01*
X5537200D01*
G03X5482100Y5426100I-101551J-75244D01*
G02Y5445100I3796J9500D01*
G03Y5680100I-46500J117500D01*
G02Y5699100I3796J9500D01*
G03X5326200Y5879900I-46494J117524D01*
G02X5307200Y5885100I-8801J5154D01*
G01Y5954500D01*
X5412000Y6059300D01*
X7732500D01*
X7758400Y6033400D01*
G02X7749000Y6016200I-7168J-7251D01*
G03X7675100Y5775300I-27338J-123399D01*
G02Y5756300I-3796J-9500D01*
G03Y5521300I46500J-117500D01*
G02Y5502300I-3796J-9500D01*
G03Y5267300I46500J-117500D01*
G02Y5248300I-3796J-9500D01*
G03X7768100I46500J-117500D01*
G02Y5267300I3796J9500D01*
G03Y5502300I-46500J117500D01*
G02Y5521300I3796J9500D01*
G03X7846700Y5620800I-46493J117522D01*
G01X7846900Y5622400D01*
X8037700Y5813200D01*
Y6037500D01*
X7815500Y6259700D01*
X5329000D01*
X5207000Y6137700D01*
X5148500Y6196200D01*
X4149500D01*
X3057100Y5103800D01*
G02X3040300Y5114400I-7175J7242D01*
G03X2803500Y5202700I-119279J41792D01*
G02X2784500I-9500J3796D01*
G03X2549500I-117500J-46500D01*
G02X2530500I-9500J3796D01*
G03X2295500I-117500J-46500D01*
G02X2276500I-9500J3796D01*
G03X2033600Y5140000I-117540J-46498D01*
G01X2034000Y5137500D01*
X1924700Y5028200D01*
X667900D01*
X643800Y5004100D01*
G02X626400Y5011100I-7206J7212D01*
G03X500000Y5134400I-126400J-3139D01*
G01Y6245800D01*
X754200D01*
Y6500000D01*
X9310800D01*
Y6245800D01*
X9500000D01*
Y3126400D01*
G03X9453500Y2882500I0J-126383D01*
G02Y2863500I-3796J-9500D01*
G03X9500000Y2619600I46500J-117517D01*
G01Y754200D01*
X9245800D01*
Y500000D01*
X754200D01*
G37*
G36*
G01X840100Y4266200D02*
X625000Y4481300D01*
X625400Y4483800D01*
G03X546500Y4617500I-125367J16148D01*
G02Y4636500I3796J9500D01*
G03X625400Y4770200I-46467J117552D01*
G01X625000Y4772700D01*
X730100Y4877800D01*
X1986900D01*
X2140300Y5031200D01*
X2142800Y5030800D01*
G03X2276500Y5109700I16148J125367D01*
G02X2295500I9500J-3796D01*
G03X2530500I117500J46500D01*
G02X2549500I9500J-3796D01*
G03X2635200Y5033900I117508J46509D01*
G02X2639900Y5016800I-2529J-9891D01*
G01X2143700Y4520600D01*
X2082800D01*
G03X2032600Y4470400I0J-50200D01*
G01Y4318000D01*
G03X2046400Y4283400I50275J0D01*
G02X2039000Y4266200I-7396J-7010D01*
G01X840100D01*
G37*
G36*
G01X2784500Y4440700D02*
G03X2549500I-117500J-46500D01*
G02X2530500I-9500J3796D01*
G03X2444800Y4516500I-117508J-46509D01*
G02X2440100Y4533600I2529J9891D01*
G01X2765600Y4859100D01*
X3095800D01*
X4232500Y5995800D01*
X5065500D01*
X5106800Y5954500D01*
Y5749700D01*
X5310300Y5546200D01*
X5310500Y5544600D01*
G03X5389100Y5445100I125093J18022D01*
G02Y5426100I-3796J-9500D01*
G03Y5191100I46500J-117500D01*
G02Y5172100I-3796J-9500D01*
G03X5372300Y4945200I46514J-117516D01*
G02X5367100Y4926200I-5154J-8801D01*
G01X5121500D01*
X4892900Y5154800D01*
X4750700D01*
G03X4720100Y5172100I-76903J-100312D01*
G02Y5191100I3796J9500D01*
G03Y5426100I-46500J117500D01*
G02Y5445100I3796J9500D01*
G03X4738200Y5671200I-46528J117499D01*
G02X4743400Y5690200I5194J8790D01*
G01X4749800D01*
G03X4800000Y5740400I0J50200D01*
G01Y5892800D01*
G03X4749800Y5943000I-50200J0D01*
G01X4597400D01*
G03X4547200Y5892800I0J-50200D01*
G01Y5740400D01*
G03X4597400Y5690200I50200J0D01*
G01X4603800D01*
G02X4609000Y5671200I6J-10210D01*
G03X4627100Y5445100I64628J-108601D01*
G02Y5426100I-3796J-9500D01*
G03Y5191100I46500J-117500D01*
G02Y5172100I-3796J-9500D01*
G03X4548500Y5072600I46493J-117522D01*
G01X4548300Y5071000D01*
X3971700Y4494400D01*
X2998100D01*
G03X2803500Y4440700I-77062J-100191D01*
G02X2784500I-9500J3796D01*
G37*
G36*
G01X5498900Y4945200D02*
G03X5482100Y5172100I-63314J109384D01*
G02Y5191100I3796J9500D01*
G03X5537200Y5233400I-46451J117544D01*
G01X6660500D01*
X6815800Y5388700D01*
G02X6833200Y5381700I7206J-7212D01*
G03X6913100Y5267300I126362J3153D01*
G02Y5248300I-3796J-9500D01*
G03X6834500Y5148800I46493J-117522D01*
G01X6834300Y5147200D01*
X6613300Y4926200D01*
X5504100D01*
G02X5498900Y4945200I-46J10199D01*
G37*
%LPC*%
G75*
G36*
G01X2738900Y1108100D02*
G02X2645900I-46500J-117500D01*
G03Y1127100I-3796J9500D01*
G02X2738900I46500J117500D01*
G03Y1108100I3796J-9500D01*
G37*
G36*
G01X6519900Y1142000D02*
G02Y991600I109500J-75200D01*
G01X5504900D01*
G02X5461000Y965800I-43900J24449D01*
G01X5308600D01*
G02X5264700Y991600I0J50249D01*
G01X3987800D01*
G02X3839700Y1184300I-101603J75174D01*
G03Y1203300I-3796J9500D01*
G02X3932700I46500J117500D01*
G03Y1184300I3796J-9500D01*
G02X3987800Y1142000I-46451J-117544D01*
G01X5264700D01*
G02X5269100Y1148600I43849J-24466D01*
G02X5280900Y1257300I90309J45187D01*
G02X5359400Y1421800I78500J63520D01*
G01X5410200D01*
G02X5488700Y1257300I0J-100980D01*
G02X5500500Y1148600I-78509J-63513D01*
G02X5504900Y1142000I-39449J-31066D01*
G01X6519900D01*
G37*
G36*
G01X1976900Y1997100D02*
G02X1883900I-46500J-117500D01*
G03Y2016100I-3796J9500D01*
G02Y2251100I46500J117500D01*
G03Y2270100I-3796J9500D01*
G02X1865800Y2496200I46528J117499D01*
G03X1860600Y2515200I-5194J8790D01*
G01X1854200D01*
G02X1804000Y2565400I0J50200D01*
G01Y2717800D01*
G02X1854200Y2768000I50200J0D01*
G01X2006600D01*
G02X2056800Y2717800I0J-50200D01*
G01Y2565400D01*
G02X2006600Y2515200I-50200J0D01*
G01X2000200D01*
G03X1995000Y2496200I-6J-10210D01*
G02X1976900Y2270100I-64628J-108601D01*
G03Y2251100I3796J-9500D01*
G02Y2016100I-46500J-117500D01*
G03Y1997100I3796J-9500D01*
G37*
G36*
G01X2738900D02*
G02X2645900I-46500J-117500D01*
G03Y2016100I-3796J9500D01*
G02Y2251100I46500J117500D01*
G03Y2270100I-3796J9500D01*
G02Y2505100I46500J117500D01*
G03Y2524100I-3796J9500D01*
G02X2794000Y2716800I46497J117526D01*
G01X2991500D01*
X3270900Y2996200D01*
X4222100D01*
X4420800Y2797600D01*
X4423300Y2798000D01*
G02X4554500Y2742200I21745J-131015D01*
G01X4984100D01*
X5035900Y2690400D01*
X5038400Y2690800D01*
G02X4929200Y2581600I16200J-125400D01*
G01X4929600Y2584100D01*
X4921900Y2591800D01*
X4554500D01*
G02X4314000Y2688700I-109482J75176D01*
G01X4314400Y2691200D01*
X4159900Y2845800D01*
X3333100D01*
X3053700Y2566400D01*
X2794000D01*
G02X2738900Y2524100I-101551J75244D01*
G03Y2505100I3796J-9500D01*
G02Y2270100I-46500J-117500D01*
G03Y2251100I3796J-9500D01*
G02X2784400Y2220200I-46545J-117487D01*
G03X2799100Y2220000I7447J7008D01*
G01X2876800Y2297700D01*
X3319500D01*
G02Y2147300I109500J-75200D01*
G01X2939000D01*
X2850100Y2058400D01*
X2794000D01*
G02X2738900Y2016100I-101551J75244D01*
G03Y1997100I3796J-9500D01*
G37*
G36*
G01X7984800Y3163300D02*
X6255400D01*
X5709300Y3709400D01*
X5697500D01*
X5696000Y3707300D01*
G02X5697500Y3859800I-107990J77320D01*
G01X5771500D01*
X6317600Y3313700D01*
X7922600D01*
X7928500Y3319600D01*
Y3788600D01*
X7922600Y3794500D01*
X7914000D01*
X7872000Y3752500D01*
X7872400Y3750000D01*
G02X7793500Y3616300I-125367J-16148D01*
G03Y3597300I3796J-9500D01*
G02X7700500I-46500J-117500D01*
G03Y3616300I-3796J9500D01*
G02Y3851300I46500J117500D01*
G03Y3870300I-3796J9500D01*
G02Y4105300I46500J117500D01*
G03Y4124300I-3796J9500D01*
G02X7793500I46500J117500D01*
G03Y4105300I3796J-9500D01*
G02X7869700Y3957500I-46503J-117518D01*
G03X7879600Y3944900I9916J-2398D01*
G01X7984800D01*
X8078900Y3850800D01*
Y3257400D01*
X7984800Y3163300D01*
G37*
G36*
G01X7031500Y3597300D02*
G02X6938500I-46500J-117500D01*
G03Y3616300I-3796J9500D01*
G02Y3851300I46500J117500D01*
G03Y3870300I-3796J9500D01*
G02X6920400Y4096400I46528J117499D01*
G03X6915200Y4115400I-5194J8790D01*
G01X6908800D01*
G02X6858600Y4165600I0J50200D01*
G01Y4318000D01*
G02X6908800Y4368200I50200J0D01*
G01X7061200D01*
G02X7111400Y4318000I0J-50200D01*
G01Y4165600D01*
G02X7061200Y4115400I-50200J0D01*
G01X7054800D01*
G03X7049600Y4096400I-6J-10210D01*
G02X7031500Y3870300I-64628J-108601D01*
G03Y3851300I3796J-9500D01*
G02Y3616300I-46500J-117500D01*
G03Y3597300I3796J-9500D01*
G37*
G36*
G01X1951500Y6061100D02*
G02X1858500I-46500J-117500D01*
G03Y6080100I-3796J9500D01*
G02X1951500I46500J117500D01*
G03Y6061100I3796J-9500D01*
G37*
G36*
G01X8262000Y1027700D02*
X8561800Y1327500D01*
X8561400Y1330000D01*
G02X8703000Y1471600I125400J16200D01*
G01X8705500Y1471200D01*
X8815800Y1581500D01*
X8815400Y1584000D01*
G02X8924600Y1474800I125400J16200D01*
G01X8922100Y1475200D01*
X8811800Y1364900D01*
X8812200Y1362400D01*
G02X8670600Y1220800I-125400J-16200D01*
G01X8668100Y1221200D01*
X8324200Y877300D01*
X7169800D01*
X7085400Y961600D01*
X7082900Y961200D01*
G02X7192200Y1070500I-21700J131000D01*
G01X7191800Y1068000D01*
X7232000Y1027700D01*
X8262000D01*
G37*
G36*
G01X8717500Y5028200D02*
X8907500D01*
G02Y4877800I109500J-75200D01*
G01X8655300D01*
X8641100Y4892000D01*
G03X8626400Y4891800I-7253J-7208D01*
G02X8636000Y5053600I-92008J86644D01*
G01X8692100D01*
X8717500Y5028200D01*
G37*
G36*
G01X8408000Y5892800D02*
Y6045200D01*
G02X8458200Y6095400I50200J0D01*
G01X8610600D01*
G02X8660800Y6045200I0J-50200D01*
G01Y5892800D01*
G02X8610600Y5842600I-50200J0D01*
G01X8458200D01*
G02X8408000Y5892800I0J50200D01*
G37*
G36*
G01X6933900Y2007600D02*
X6738900D01*
G02Y2158000I-109500J75200D01*
G01X6871700D01*
X6897100Y2183400D01*
X6951700D01*
G02X6961800Y2020100I109487J-75191D01*
G03X6946900Y2020600I-7684J-6710D01*
G01X6933900Y2007600D01*
G37*
G54D19*
X8686800Y1854200D03*
X5308600Y2819400D03*
X5562600Y2565400D03*
G54D18*
X9017000Y5969000D03*
X5588000Y4470400D03*
X5613400Y4165600D03*
Y3403600D03*
X4572000Y4470400D03*
X4597400Y4165600D03*
X4572000Y3784600D03*
X4597400Y3403600D03*
X4445000Y2222500D03*
X3429000Y2667000D03*
%LPD*%
G75*
G54D10*
X500000Y500000D03*
Y6500000D03*
X9500000Y500000D03*
X9565000Y6500000D03*
G54D11*
X500000Y1738000D03*
Y1992000D03*
Y2246000D03*
Y2500000D03*
Y5008000D03*
Y4754000D03*
Y4500000D03*
X1930400Y1879600D03*
Y2133600D03*
Y2387600D03*
X1905000Y6197600D03*
Y5943600D03*
X2692400Y990600D03*
Y1244600D03*
Y1879600D03*
Y2133600D03*
Y2387600D03*
Y2641600D03*
X2667000Y4394200D03*
X2413000D03*
X2667000Y5156200D03*
X2413000D03*
X2159000D03*
X2921000Y4394200D03*
Y5156200D03*
X3886200Y1066800D03*
Y1320800D03*
X4673600Y5562600D03*
Y5308600D03*
Y5054600D03*
X5054600Y2565400D03*
X5562600D03*
X5308600Y2819400D03*
X5435600Y5562600D03*
Y5308600D03*
Y5054600D03*
Y5816600D03*
X6985000Y3479800D03*
Y3987800D03*
Y3733800D03*
X6959600Y5638800D03*
Y5384800D03*
Y5130800D03*
X7747000Y3479800D03*
Y4241800D03*
Y3987800D03*
Y3733800D03*
X7721600Y5638800D03*
Y5384800D03*
Y5130800D03*
Y5892800D03*
X8686800Y1854200D03*
Y1346200D03*
X8534400Y4978400D03*
X8940800Y1600200D03*
X9500000Y2746000D03*
Y3000000D03*
G54D12*
X1930400Y2641600D03*
X2159000Y4394200D03*
X4673600Y5816600D03*
X6985000Y4241800D03*
X6959600Y5892800D03*
X8534400Y5969000D03*
G54D13*
X3429000Y2222500D03*
Y2667000D03*
X4445000Y2222500D03*
Y2667000D03*
X4597400Y3403600D03*
X4572000Y3784600D03*
X4597400Y4165600D03*
X4572000Y4470400D03*
X5613400Y3403600D03*
X5588000Y3784600D03*
X5613400Y4165600D03*
X5588000Y4470400D03*
X7061200Y1092200D03*
X6629400Y1066800D03*
X7061200Y2108200D03*
X6629400Y2082800D03*
X9017000Y4953000D03*
Y5969000D03*
G54D14*
X5384800Y1066800D03*
G54D15*
Y1193800D03*
Y1320800D03*
G54D16*
G01X5207000Y5996000D02*
X5107000Y6096000D01*
X4191000D01*
X3054300Y4959300D01*
X2724100D01*
X2159000Y4394200D01*
G01X2921000D02*
X4013200D01*
X4673600Y5054600D01*
G01X6959600Y5130800D02*
X6654800Y4826000D01*
X5080000D01*
X4851400Y5054600D01*
X4673600D01*
G01X5207000Y5996000D02*
Y5791200D01*
X5435600Y5562600D01*
G01X7721600Y5638800D02*
X7937500Y5854700D01*
Y5996000D01*
X7774000Y6159500D01*
X5370500D01*
X5207000Y5996000D01*
G54D17*
G01X500000Y4754000D02*
X699000Y4953000D01*
X1955800D01*
X2159000Y5156200D01*
G01X500000Y4500000D02*
X809000Y4191000D01*
X2463800D01*
X2667000Y4394200D01*
G01X500000Y5008000D02*
X631500D01*
G01X500000D02*
Y5139500D01*
G01X1798900Y2641600D02*
X1930400D01*
G01X1773500Y5943600D02*
X1905000D01*
G01X2560900Y1244600D02*
X2692400D01*
G01X1930400Y2641600D02*
X2061900D01*
G01X1930400D02*
Y2773100D01*
G01X2413000Y5156200D02*
Y5287700D01*
G01Y5024700D02*
Y5156200D01*
G01X1905000Y5943600D02*
X2036500D01*
G01X1905000Y5812100D02*
Y5943600D01*
G01X2692400Y1244600D02*
X2823900D01*
G01X2692400D02*
Y1376100D01*
G01Y2133600D02*
X2819000D01*
X2907900Y2222500D01*
X3429000D01*
G01X4445000Y2667000D02*
X4191000Y2921000D01*
X3302000D01*
X3022600Y2641600D01*
X2692400D01*
G01X3886200Y1066800D02*
X5384800D01*
G01X3886200Y1320800D02*
X4017700D01*
G01X3754700D02*
X3886200D01*
G01D02*
Y1452300D01*
G01X4445000Y2222500D02*
X4582900D01*
G01X4307100D02*
X4445000D01*
G01D02*
Y2360400D01*
G01Y2084600D02*
Y2222500D01*
G01Y2667000D02*
X4953000D01*
X5054600Y2565400D01*
G01X6629400Y1066800D02*
X5384800D01*
G01X5613400Y3403600D02*
X5751300D01*
G01X5475500D02*
X5613400D01*
G01D02*
Y3541500D01*
G01Y3265700D02*
Y3403600D01*
G01X5588000Y3784600D02*
X5740400D01*
X6286500Y3238500D01*
X7953700D01*
X8003700Y3288500D01*
Y3819700D01*
X7953700Y3869700D01*
X7882900D01*
X7747000Y3733800D01*
G01X5435600Y5308600D02*
X6629400D01*
X6959600Y5638800D01*
G01X8686800Y1346200D02*
X8293100Y952500D01*
X7200900D01*
X7061200Y1092200D01*
G01X6629400Y2082800D02*
X6902800D01*
X6928200Y2108200D01*
X7061200D01*
G01X6985000Y3733800D02*
X7116500D01*
G01X6853500D02*
X6985000D01*
G01X6959600Y5384800D02*
X7091100D01*
G01X6828100D02*
X6959600D01*
G01X8940800Y1600200D02*
X8686800Y1346200D01*
G01X8534400Y4978400D02*
X8661000D01*
X8686400Y4953000D01*
X9017000D01*
G01X9500000Y2614500D02*
Y2746000D01*
G01X9368500D02*
X9500000D01*
G01X9017000Y5969000D02*
X9154900D01*
G01X8879100D02*
X9017000D01*
G01D02*
Y6106900D01*
G01Y5831100D02*
Y5969000D01*
M02*
