G04 ================== begin FILE IDENTIFICATION RECORD ==================*
G04 Layout Name:  PULSE MODULATION.brd*
G04 Film Name:    TOP*
G04 File Format:  Gerber RS274X*
G04 File Origin:  Cadence Allegro 17.2-P019*
G04 Origin Date:  Tue Jul 30 17:40:17 2019*
G04 *
G04 Layer:  ETCH/TOP*
G04 Layer:  PIN/TOP*
G04 Layer:  VIA CLASS/TOP*
G04 *
G04 Offset:    (0.000 0.000)*
G04 Mirror:    No*
G04 Mode:      Positive*
G04 Rotation:  0*
G04 FullContactRelief:  No*
G04 UndefLineWidth:     0.000*
G04 ================== end FILE IDENTIFICATION RECORD ====================*
%FSLAX25Y25*MOMM*%
%IR0*IPPOS*OFA0.00000B0.00000*MIA0B0*SFA1.00000B1.00000*%
%ADD11C,1.524*%
%ADD13C,1.651*%
%ADD12R,1.524X1.524*%
%ADD15O,1.524X1.016*%
%ADD14R,1.524X1.016*%
%ADD10C,.635*%
%ADD16C,1.*%
%ADD17C,.5*%
G75*
%LPD*%
G75*
G54D10*
X500000Y500000D03*
Y6500000D03*
X9500000Y500000D03*
X9565000Y6500000D03*
G54D11*
X500000Y1738000D03*
Y1992000D03*
Y2246000D03*
Y2500000D03*
Y5008000D03*
Y4754000D03*
Y4500000D03*
X1930400Y1879600D03*
Y2133600D03*
Y2387600D03*
X1905000Y6197600D03*
Y5943600D03*
X2692400Y990600D03*
Y1244600D03*
Y1879600D03*
Y2133600D03*
Y2387600D03*
Y2641600D03*
X2667000Y4394200D03*
X2413000D03*
X2667000Y5156200D03*
X2413000D03*
X2159000D03*
X2921000Y4394200D03*
Y5156200D03*
X3886200Y1066800D03*
Y1320800D03*
X4673600Y5562600D03*
Y5308600D03*
Y5054600D03*
X5054600Y2565400D03*
X5562600D03*
X5308600Y2819400D03*
X5435600Y5562600D03*
Y5308600D03*
Y5054600D03*
Y5816600D03*
X6985000Y3479800D03*
Y3987800D03*
Y3733800D03*
X6959600Y5638800D03*
Y5384800D03*
Y5130800D03*
X7747000Y3479800D03*
Y4241800D03*
Y3987800D03*
Y3733800D03*
X7721600Y5638800D03*
Y5384800D03*
Y5130800D03*
Y5892800D03*
X8686800Y1854200D03*
Y1346200D03*
X8534400Y4978400D03*
X8940800Y1600200D03*
X9500000Y2746000D03*
Y3000000D03*
G54D12*
X1930400Y2641600D03*
X2159000Y4394200D03*
X4673600Y5816600D03*
X6985000Y4241800D03*
X6959600Y5892800D03*
X8534400Y5969000D03*
G54D13*
X3429000Y2222500D03*
Y2667000D03*
X4445000Y2222500D03*
Y2667000D03*
X4597400Y3403600D03*
X4572000Y3784600D03*
X4597400Y4165600D03*
X4572000Y4470400D03*
X5613400Y3403600D03*
X5588000Y3784600D03*
X5613400Y4165600D03*
X5588000Y4470400D03*
X7061200Y1092200D03*
X6629400Y1066800D03*
X7061200Y2108200D03*
X6629400Y2082800D03*
X9017000Y4953000D03*
Y5969000D03*
G54D14*
X5384800Y1066800D03*
G54D15*
Y1193800D03*
Y1320800D03*
G54D16*
G01X500000Y1738000D02*
X651600D01*
X3036000Y4122400D01*
Y4279200D01*
X2921000Y4394200D01*
G01X2159000D02*
X2286000Y4267200D01*
Y3937000D01*
X741800Y2392800D01*
X607200D01*
X500000Y2500000D01*
G01X6959600Y5130800D02*
X7136600Y4953800D01*
Y3631400D01*
X6985000Y3479800D01*
G01X7721600Y5638800D02*
X7556500Y5473700D01*
Y5081400D01*
X7898600Y4739300D01*
Y4139400D01*
X7747000Y3987800D01*
G54D17*
G01X1905000Y6197600D02*
X2667000Y5435600D01*
Y5156200D01*
G01X2692400Y990600D02*
X2819000D01*
X2857500Y1029100D01*
Y1841100D01*
X2819000Y1879600D01*
X2692400D01*
G01Y2387600D02*
Y2133600D01*
G01X2921000Y5156200D02*
X3606800D01*
X4597400Y4165600D01*
G01X3429000Y2222500D02*
X3556000Y2095500D01*
Y1143000D01*
X3632200Y1066800D01*
X3886200D01*
G01X3429000Y2667000D02*
Y2222500D01*
G01X4572000Y3784600D02*
Y3562000D01*
X4597400Y3536600D01*
Y3403600D01*
G01X4572000Y3784600D02*
X4762500Y3975100D01*
Y4279900D01*
X4572000Y4470400D01*
G01D02*
X4445000Y4597400D01*
Y5080000D01*
X4673600Y5308600D01*
G01X4572000Y4470400D02*
X5308600D01*
X5613400Y4165600D01*
G01X4673600Y5562600D02*
Y5308600D01*
G01X5384800Y1066800D02*
Y1193800D01*
G01X5562600Y2565400D02*
Y1372000D01*
X5511400Y1320800D01*
X5384800D01*
G01X5054600Y2565400D02*
X5232400D01*
X5308600Y2641600D01*
Y2819400D01*
G01X5588000Y4470400D02*
X5422900Y4635500D01*
X5257000D01*
X5207000Y4685500D01*
Y5080000D01*
X5435600Y5308600D01*
G01X7061200Y2108200D02*
Y2781300D01*
X6794500Y3048000D01*
Y3797300D01*
X6985000Y3987800D01*
G01X7747000Y3733800D02*
X7620400Y3607200D01*
Y2920600D01*
X8686800Y1854200D01*
G01X8534400Y5969000D02*
X8318500D01*
X8191500Y5842000D01*
Y5651500D01*
X8064500Y5524500D01*
X7861300D01*
X7721600Y5384800D01*
G01X9500000Y3000000D02*
X9321000D01*
X9271000Y3050000D01*
Y4649000D01*
X9221000Y4699000D01*
X9080500D01*
X9017000Y4762500D01*
Y4953000D01*
M02*
